<?xml version="1.0" standalone="no"?><!DOCTYPE svg PUBLIC "-//W3C//DTD SVG 1.1//EN" "http://www.w3.org/Graphics/SVG/1.1/DTD/svg11.dtd"><svg t="1625281514473" class="icon" viewBox="0 0 1024 1024" version="1.1" xmlns="http://www.w3.org/2000/svg" p-id="5516" xmlns:xlink="http://www.w3.org/1999/xlink" width="200" height="200"><defs><style type="text/css"></style></defs><path d="M685.92 767.426S772.474 1023.6 694.35 1023.6c-78.126 0-266.668-203.34-266.668-203.34l258.238-52.834z" fill="#DA4453" p-id="5517"></path><path d="M212.07 767.426S125.542 1023.6 203.654 1023.6c78.126 0 266.65-203.34 266.65-203.34l-258.234-52.834z" fill="#DA4453" p-id="5518"></path><path d="M852.974 533.202c0 223.638-181.294 404.936-404.934 404.936-223.622 0-404.918-181.296-404.918-404.936 0-223.636 181.296-404.932 404.918-404.932 223.64 0 404.934 181.294 404.934 404.932z" fill="#ED5564" p-id="5519"></path><path d="M724.826 533.202c0 152.85-123.902 276.786-276.786 276.786-152.85 0-276.784-123.936-276.784-276.786 0-152.864 123.934-276.784 276.784-276.784 152.884 0 276.786 123.92 276.786 276.784z" fill="#F5F7FA" p-id="5520"></path><path d="M597.238 533.202c0 82.406-66.806 149.166-149.198 149.166-82.388 0-149.18-66.76-149.18-149.166 0-82.386 66.792-149.18 149.18-149.18 82.392 0 149.198 66.792 149.198 149.18z" fill="#ED5564" p-id="5521"></path><path d="M830.182 271.656l-78.378-18.08-24.98-24.98-17.236-77.502L860.284 0.4l120.592 120.562z" fill="#FFCE54" p-id="5522"></path><path d="M956.958 45.616c0-11.774-9.556-21.312-21.294-21.312a21.23 21.23 0 0 0-15.114 6.246L432.99 518.12a21.23 21.23 0 0 0-6.26 15.082c0 11.774 9.554 21.328 21.31 21.328 5.886 0 11.226-2.404 15.082-6.246l487.528-487.54c3.872-3.872 6.308-9.212 6.308-15.128z" fill="#434A54" p-id="5523"></path></svg>