<?xml version="1.0" standalone="no"?><!DOCTYPE svg PUBLIC "-//W3C//DTD SVG 1.1//EN" "http://www.w3.org/Graphics/SVG/1.1/DTD/svg11.dtd"><svg t="1625281295494" class="icon" viewBox="0 0 1024 1024" version="1.1" xmlns="http://www.w3.org/2000/svg" p-id="2307" xmlns:xlink="http://www.w3.org/1999/xlink" width="200" height="200"><defs><style type="text/css"></style></defs><path d="M426.666667 597.333333c-23.552 0-42.666667 19.114667-42.666667 42.666667s19.114667 42.666667 42.666667 42.666667 42.666667-19.114667 42.666667-42.666667S450.218667 597.333333 426.666667 597.333333L426.666667 597.333333z" p-id="2308" fill="#2c3e50"></path><path d="M426.666667 554.666667c47.061333 0 85.333333 38.272 85.333333 85.333333s-38.272 85.333333-85.333333 85.333333-85.333333-38.272-85.333333-85.333333S379.605333 554.666667 426.666667 554.666667M426.666667 512c-70.698667 0-128 57.322667-128 128 0 70.698667 57.301333 128 128 128 70.677333 0 128-57.301333 128-128C554.666667 569.301333 497.344 512 426.666667 512L426.666667 512z" p-id="2309" fill="#2c3e50"></path><path d="M426.666667 426.666667c117.632 0 213.333333 95.701333 213.333333 213.333333s-95.701333 213.333333-213.333333 213.333333-213.333333-95.701333-213.333333-213.333333S309.034667 426.666667 426.666667 426.666667M426.666667 384c-141.376 0-256 114.624-256 256s114.624 256 256 256 256-114.624 256-256S568.042667 384 426.666667 384L426.666667 384z" p-id="2310" fill="#2c3e50"></path><path d="M426.666667 298.666667c188.202667 0 341.333333 153.130667 341.333333 341.333333s-153.130667 341.333333-341.333333 341.333333S85.333333 828.202667 85.333333 640 238.464 298.666667 426.666667 298.666667M426.666667 256c-212.053333 0-384 171.946667-384 384s171.946667 384 384 384c212.053333 0 384-171.946667 384-384S638.72 256 426.666667 256L426.666667 256z" p-id="2311" fill="#2c3e50"></path><path d="M880.905549 155.582985l30.1696 30.1696-469.333382 469.333382-30.1696-30.1696 469.333382-469.333382Z" p-id="2312" fill="#2c3e50"></path><path d="M874.666667 104.768 874.666667 149.333333l0 42.666667 42.666667 0 44.458667 0c-27.946667 61.674667-73.536 133.12-120.746667 133.12-19.178667 0-40.789333-11.882667-64.213333-35.285333-42.133333-42.133333-35.904-67.52-33.856-75.861333C753.344 171.669333 816.362667 131.114667 874.666667 104.768M917.333333 42.666667c0 0-341.333333 106.666667-170.666667 277.333333 34.133333 34.133333 65.706667 47.786667 94.378667 47.786667C955.733333 367.786667 1024 149.333333 1024 149.333333l-106.666667 0L917.333333 42.666667 917.333333 42.666667z" p-id="2313" fill="#2c3e50"></path><path d="M789.333333 106.666667l42.666667 0 0 149.333333-42.666667 0 0-149.333333Z" p-id="2314" fill="#2c3e50"></path><path d="M64 1024c-5.461333 0-10.922667-2.090667-15.082667-6.250667-8.341333-8.341333-8.341333-21.824 0-30.165333l91.136-91.136c8.341333-8.341333 21.824-8.341333 30.165333 0s8.341333 21.824 0 30.165333l-91.136 91.136C74.922667 1021.909333 69.461333 1024 64 1024z" p-id="2315" fill="#2c3e50"></path><path d="M789.333333 1024c-5.461333 0-10.922667-2.090667-15.082667-6.250667l-91.157333-91.157333c-8.341333-8.341333-8.341333-21.824 0-30.165333s21.824-8.341333 30.165333 0l91.157333 91.157333c8.341333 8.341333 8.341333 21.824 0 30.165333C800.256 1021.909333 794.794667 1024 789.333333 1024z" p-id="2316" fill="#2c3e50"></path></svg>